<svg id="svg" xmlns="http://www.w3.org/2000/svg" xmlns:xlink="http://www.w3.org/1999/xlink" width="40" height="40" viewBox="0, 0, 400,400"><g id="svgg"><path id="path0" d="M124.267 278.667 C 123.804 279.130,123.954 298.724,124.423 299.014 C 125.970 299.970,126.800 298.846,126.800 295.792 L 126.800 292.800 130.100 292.818 L 133.400 292.836 135.214 295.918 C 136.718 298.473,137.222 299.022,138.163 299.131 C 140.229 299.370,140.194 298.651,137.981 295.372 L 135.883 292.263 137.358 291.079 C 140.952 288.196,141.018 282.932,137.494 280.244 C 135.607 278.806,125.351 277.582,124.267 278.667 M150.584 278.898 C 150.475 279.182,150.434 283.822,150.493 289.208 L 150.600 299.000 157.600 299.000 L 164.600 299.000 164.725 297.700 L 164.851 296.400 159.658 296.400 C 152.945 296.400,153.200 296.527,153.200 293.200 C 153.200 289.908,153.037 290.000,158.858 290.000 L 163.251 290.000 163.125 288.700 L 163.000 287.400 158.100 287.288 L 153.200 287.175 153.200 284.430 C 153.200 281.069,152.938 281.200,159.658 281.200 L 164.851 281.200 164.725 279.900 L 164.600 278.600 157.691 278.491 C 152.332 278.406,150.738 278.497,150.584 278.898 M200.900 278.658 C 200.519 278.817,200.400 281.237,200.400 288.826 L 200.400 298.785 201.429 299.043 C 203.151 299.475,203.220 299.047,203.107 288.573 C 202.992 277.851,202.978 277.788,200.900 278.658 M214.700 278.619 C 214.215 279.127,214.333 298.711,214.823 299.014 C 216.370 299.970,217.200 298.846,217.200 295.792 L 217.200 292.800 219.267 292.800 C 228.757 292.800,233.762 286.224,228.374 280.835 C 226.623 279.085,215.914 277.349,214.700 278.619 M239.384 278.898 C 239.275 279.182,239.234 283.822,239.293 289.208 L 239.400 299.000 245.800 299.114 C 253.573 299.253,254.000 299.175,254.000 297.603 L 254.000 296.422 248.300 296.311 L 242.600 296.200 242.480 293.436 C 242.331 289.979,242.276 290.014,247.900 290.006 L 252.400 290.000 252.400 288.843 C 252.400 287.324,251.975 287.200,246.767 287.200 L 242.400 287.200 242.400 284.443 C 242.400 281.075,242.159 281.200,248.658 281.200 L 253.651 281.200 253.525 279.900 L 253.400 278.600 246.491 278.491 C 241.132 278.406,239.538 278.497,239.384 278.898 M179.851 279.363 C 170.792 282.734,171.284 295.935,180.562 298.446 C 185.217 299.706,192.701 296.923,190.520 294.742 C 189.751 293.973,189.726 293.975,187.971 294.978 C 180.528 299.233,172.709 290.840,177.844 284.107 C 179.901 281.409,184.661 280.552,187.608 282.349 C 189.328 283.397,190.070 283.420,190.681 282.442 C 192.113 280.149,183.964 277.832,179.851 279.363 M266.131 279.575 C 264.046 280.522,263.067 281.979,263.067 284.133 C 263.067 287.201,264.397 288.360,269.848 290.044 C 272.770 290.946,274.000 291.936,274.000 293.384 C 274.000 296.205,269.559 296.936,265.356 294.806 C 262.948 293.585,262.000 293.757,262.000 295.414 C 262.000 298.051,271.380 299.808,274.738 297.800 C 279.623 294.879,278.035 289.592,271.681 287.624 C 267.776 286.415,266.400 285.478,266.400 284.029 C 266.400 281.656,269.566 280.918,273.891 282.281 C 276.243 283.023,276.926 282.718,276.702 281.024 C 276.449 279.103,269.323 278.126,266.131 279.575 M133.376 281.572 C 138.471 282.408,138.636 288.646,133.588 289.620 C 131.471 290.029,128.323 290.099,127.433 289.757 C 126.608 289.441,126.485 281.794,127.300 281.465 C 128.066 281.156,131.174 281.211,133.376 281.572 M225.303 282.053 C 227.921 283.448,227.955 287.735,225.358 289.118 C 224.266 289.699,219.565 290.178,218.234 289.844 C 217.049 289.547,216.567 281.956,217.700 281.438 C 218.515 281.065,224.332 281.536,225.303 282.053 " stroke="none" fill="#737373" fill-rule="evenodd"></path><path id="path1" d="M0.000 200.000 L 0.000 400.000 200.000 400.000 L 400.000 400.000 400.000 200.000 L 400.000 0.000 200.000 0.000 L 0.000 0.000 0.000 200.000 M281.418 76.958 C 284.057 78.031,287.882 81.323,289.599 83.998 C 290.503 85.408,291.384 86.221,292.578 86.749 C 295.054 87.844,295.957 89.351,296.245 92.865 C 296.495 95.921,296.289 96.731,293.934 101.968 C 291.869 106.562,291.253 108.020,290.037 111.200 C 289.323 113.070,288.572 114.913,288.369 115.295 C 288.166 115.677,288.000 116.341,288.000 116.771 C 288.000 117.201,287.840 117.652,287.644 117.773 C 287.449 117.894,287.189 118.579,287.069 119.296 C 286.948 120.013,286.648 121.590,286.403 122.800 C 285.866 125.449,285.322 129.081,284.817 133.400 C 282.901 149.758,282.976 149.203,281.642 156.892 C 281.256 159.118,280.415 161.236,278.863 163.893 C 278.233 164.972,278.176 165.443,278.519 166.728 C 278.899 168.150,278.818 168.451,277.472 170.634 L 276.015 173.000 276.107 177.400 C 276.203 181.931,275.887 183.397,274.330 185.662 C 273.929 186.246,273.600 187.092,273.600 187.543 C 273.600 187.994,273.439 188.776,273.242 189.281 C 273.045 189.787,272.666 191.010,272.400 192.000 C 272.134 192.990,271.742 194.243,271.529 194.784 C 271.232 195.535,271.285 195.873,271.751 196.214 C 272.397 196.686,271.650 198.634,269.737 201.466 C 267.608 204.619,267.247 206.883,268.650 208.286 C 269.760 209.396,269.810 211.007,268.861 215.000 C 268.652 215.880,268.264 217.590,268.000 218.800 C 267.736 220.010,267.357 221.675,267.160 222.500 C 266.962 223.325,266.640 224.675,266.445 225.500 C 266.249 226.325,265.626 228.240,265.060 229.755 C 264.266 231.882,264.127 232.690,264.452 233.298 C 264.927 234.184,264.732 236.610,263.994 239.000 C 263.723 239.880,263.363 242.400,263.196 244.600 C 263.028 246.800,262.755 249.286,262.589 250.124 C 262.399 251.087,262.477 252.220,262.801 253.203 C 263.511 255.353,262.111 258.165,258.614 261.617 C 257.184 263.029,255.758 264.817,255.446 265.592 C 254.543 267.833,253.350 268.607,250.000 269.121 C 242.915 270.210,243.190 270.225,241.200 268.641 C 240.210 267.853,239.083 267.206,238.695 267.204 C 235.054 267.184,233.681 263.487,235.164 257.700 C 236.132 253.925,236.381 252.924,236.783 251.200 C 237.013 250.210,237.390 248.410,237.619 247.200 C 237.848 245.990,238.209 244.100,238.421 243.000 C 238.634 241.900,238.992 239.830,239.216 238.400 C 240.151 232.454,240.453 230.479,240.779 228.200 C 241.101 225.946,242.868 219.011,244.398 214.000 C 246.355 207.590,247.200 205.730,247.200 207.833 C 247.200 210.401,249.066 206.484,249.978 202.000 C 250.454 199.663,250.795 198.276,252.043 193.600 C 252.817 190.700,253.599 185.135,253.364 184.198 C 253.201 183.551,253.420 182.738,254.016 181.774 C 254.644 180.758,254.972 179.467,255.110 177.462 C 255.242 175.564,255.562 174.239,256.062 173.528 C 256.527 172.865,256.829 171.720,256.851 170.528 C 256.895 168.218,257.593 164.350,258.063 163.820 C 258.248 163.611,258.404 163.161,258.409 162.820 C 258.414 162.479,258.770 161.750,259.200 161.200 C 260.001 160.176,260.283 158.400,259.643 158.400 C 259.447 158.400,258.983 159.165,258.611 160.100 C 258.239 161.035,257.682 162.340,257.374 163.000 C 257.066 163.660,256.128 165.898,255.290 167.972 C 253.720 171.858,252.462 173.349,252.946 170.751 C 253.084 170.008,253.371 168.320,253.583 167.000 C 253.796 165.680,254.153 163.520,254.376 162.200 C 255.733 154.192,255.789 149.600,254.530 149.600 C 254.182 149.600,252.615 150.905,251.049 152.500 C 248.412 155.184,246.550 157.588,239.899 166.898 C 237.861 169.750,237.227 170.377,236.463 170.298 C 235.655 170.213,235.381 170.561,234.463 172.839 C 232.896 176.729,231.602 178.425,228.754 180.321 C 226.332 181.934,222.409 186.360,222.403 187.487 C 222.400 188.044,219.285 194.135,217.027 198.000 C 214.796 201.819,211.190 207.411,201.900 221.458 C 197.335 228.361,193.600 234.109,193.600 234.232 C 193.600 234.457,191.576 237.480,190.418 238.986 C 190.078 239.428,188.810 240.783,187.600 241.996 C 182.075 247.538,180.883 248.140,181.362 245.150 C 181.690 243.098,181.279 243.209,179.649 245.612 C 176.325 250.513,171.719 254.500,168.200 255.523 C 167.320 255.779,165.445 256.351,164.034 256.794 C 158.308 258.592,146.010 256.644,140.900 253.131 C 138.830 251.707,138.780 251.045,140.537 248.294 C 141.272 247.142,142.831 244.670,144.000 242.800 C 146.377 239.000,147.979 236.571,150.515 232.928 C 153.655 228.416,154.964 225.356,155.273 221.800 C 155.426 220.040,155.724 217.880,155.935 217.000 C 156.146 216.120,156.536 214.410,156.800 213.200 C 157.064 211.990,157.434 210.370,157.622 209.600 C 157.810 208.830,158.137 207.480,158.350 206.600 C 158.766 204.880,160.219 199.425,160.828 197.300 C 161.032 196.585,161.380 195.370,161.600 194.600 C 161.820 193.830,162.170 192.615,162.377 191.900 C 162.585 191.185,162.955 189.880,163.200 189.000 C 163.445 188.120,163.825 186.770,164.045 186.000 C 164.265 185.230,164.625 183.970,164.845 183.200 C 165.065 182.430,165.425 181.170,165.645 180.400 C 165.865 179.630,166.227 178.370,166.449 177.600 C 166.671 176.830,167.004 175.570,167.188 174.800 C 167.372 174.030,167.790 172.410,168.116 171.200 C 169.614 165.647,169.286 162.824,167.305 164.212 C 165.601 165.405,158.345 175.702,153.830 183.333 C 151.716 186.906,146.754 193.897,145.968 194.409 C 145.791 194.524,144.852 196.144,143.881 198.009 C 140.663 204.191,138.303 208.595,137.992 209.000 C 137.823 209.220,137.306 210.075,136.843 210.900 C 134.633 214.833,134.256 215.471,133.553 216.462 C 133.139 217.046,132.800 217.643,132.800 217.790 C 132.800 217.936,132.260 218.841,131.600 219.800 C 130.940 220.759,130.400 221.621,130.400 221.715 C 130.400 221.809,128.571 224.926,126.335 228.643 C 124.099 232.359,121.728 236.390,121.066 237.600 C 120.404 238.810,119.445 240.520,118.935 241.400 C 115.554 247.236,110.093 259.002,108.444 264.000 C 106.741 269.166,106.562 269.810,106.000 272.800 C 104.124 282.792,99.863 286.360,96.131 281.064 C 94.870 279.276,92.033 277.600,90.266 277.600 C 87.758 277.600,81.600 274.622,81.600 273.409 C 81.600 273.090,82.464 271.067,83.520 268.914 C 85.454 264.973,88.327 257.966,89.226 255.000 C 89.493 254.120,89.854 253.040,90.028 252.600 C 90.924 250.342,94.400 235.459,94.400 233.881 C 94.400 232.327,97.578 222.012,99.601 217.000 C 99.778 216.560,100.498 214.670,101.200 212.800 C 101.902 210.930,102.622 209.040,102.800 208.600 C 104.893 203.428,106.050 199.624,108.636 189.400 C 110.306 182.800,111.830 176.680,112.023 175.800 C 112.216 174.920,113.112 171.320,114.014 167.800 C 115.459 162.159,116.204 159.317,117.631 154.000 C 118.408 151.104,119.200 146.542,119.200 144.960 C 119.200 144.058,119.358 142.798,119.550 142.160 C 119.743 141.522,120.121 140.010,120.391 138.800 C 120.864 136.679,122.173 132.253,122.816 130.600 C 123.188 129.645,123.172 129.690,125.680 122.600 C 126.770 119.520,127.753 116.640,127.864 116.200 C 127.976 115.760,128.213 115.040,128.392 114.600 C 131.317 107.406,131.818 107.219,137.061 111.369 C 139.810 113.545,140.569 116.246,139.633 120.523 C 139.431 121.445,139.044 123.280,138.773 124.600 C 138.304 126.884,137.535 129.983,136.788 132.600 C 136.599 133.260,136.241 134.520,135.992 135.400 C 134.238 141.599,133.874 149.344,135.260 150.953 C 137.817 153.921,144.682 147.434,156.376 131.000 C 158.880 127.480,162.125 123.160,163.587 121.400 C 165.048 119.640,167.359 116.715,168.722 114.900 C 174.986 106.558,176.007 105.272,177.903 103.336 C 180.925 100.252,185.120 97.758,189.939 96.182 C 192.540 95.331,194.424 95.595,197.730 97.272 C 200.024 98.435,200.457 98.517,203.800 98.423 C 210.465 98.236,211.131 98.296,212.399 99.199 L 213.600 100.054 213.600 104.269 C 213.600 108.005,213.483 108.717,212.565 110.542 C 211.714 112.235,211.550 113.062,211.640 115.200 C 211.700 116.638,211.525 118.334,211.248 118.994 C 210.973 119.651,210.472 120.821,210.133 121.594 C 209.170 123.796,208.926 124.473,208.399 126.400 C 207.806 128.568,206.962 130.950,205.001 135.996 C 203.486 139.892,202.887 141.660,202.016 144.800 C 201.741 145.790,201.355 147.013,201.158 147.519 C 200.961 148.024,200.800 149.599,200.800 151.019 L 200.800 153.600 201.985 153.600 C 203.521 153.600,207.234 150.171,211.949 144.400 C 213.836 142.090,215.481 140.110,215.605 140.000 C 216.271 139.408,220.800 133.090,220.800 132.753 C 220.800 132.174,223.934 127.645,225.536 125.909 C 226.293 125.088,227.192 124.008,227.533 123.509 C 227.874 123.009,228.263 122.510,228.396 122.400 C 228.529 122.290,229.071 121.570,229.600 120.800 C 230.129 120.030,231.929 117.690,233.600 115.600 C 235.271 113.510,237.077 111.170,237.614 110.400 C 238.150 109.630,238.806 108.730,239.072 108.400 C 239.338 108.070,240.393 106.672,241.417 105.293 C 247.441 97.180,258.233 86.598,265.830 81.354 C 267.387 80.279,269.538 78.781,270.611 78.025 C 274.350 75.390,276.937 75.134,281.418 76.958 M235.400 120.956 C 233.774 122.683,231.283 125.873,229.588 128.400 C 228.629 129.830,227.609 131.238,227.322 131.528 C 227.035 131.819,226.317 132.899,225.726 133.928 C 225.135 134.958,224.145 136.552,223.526 137.472 C 222.907 138.392,222.400 139.337,222.400 139.572 C 222.400 141.138,225.976 138.333,226.759 136.153 C 227.066 135.299,228.084 133.744,229.022 132.698 C 229.959 131.652,231.320 129.762,232.045 128.498 C 232.771 127.234,233.684 125.660,234.075 125.000 C 236.163 121.474,236.831 119.437,235.400 120.956 M209.122 156.300 C 208.330 157.125,206.848 158.970,205.829 160.400 C 202.444 165.151,200.000 168.761,200.000 169.010 C 200.000 169.145,199.428 170.087,198.729 171.103 C 197.131 173.426,193.530 180.463,193.801 180.734 C 194.104 181.038,195.801 179.327,196.427 178.087 C 196.729 177.489,197.439 176.280,198.006 175.400 C 198.573 174.520,199.837 172.180,200.815 170.200 C 201.793 168.220,202.729 166.540,202.896 166.467 C 203.063 166.393,203.200 166.070,203.200 165.749 C 203.200 165.427,204.783 163.507,206.718 161.482 C 208.653 159.457,210.453 157.297,210.718 156.681 C 211.729 154.334,211.144 154.194,209.122 156.300 M151.900 239.087 C 151.185 239.880,150.933 241.600,151.532 241.600 C 152.049 241.600,152.895 239.785,152.739 239.008 C 152.611 238.366,152.546 238.372,151.900 239.087 M136.451 278.569 C 141.365 280.640,142.561 287.039,138.748 290.852 C 136.855 292.745,136.808 292.256,139.218 295.827 C 141.557 299.293,141.506 299.600,138.586 299.600 C 136.180 299.600,135.713 299.130,133.133 294.100 C 132.728 293.311,132.361 293.200,130.153 293.200 L 127.634 293.200 127.517 296.300 L 127.400 299.400 125.200 299.400 L 123.000 299.400 122.893 289.207 C 122.834 283.601,122.873 278.786,122.980 278.507 C 123.271 277.749,134.630 277.801,136.451 278.569 M165.000 280.000 L 165.000 281.800 159.500 281.911 L 154.000 282.023 154.000 284.399 L 154.000 286.776 159.100 286.888 L 164.200 287.000 164.200 288.800 L 164.200 290.600 159.100 290.712 L 154.000 290.824 154.000 293.201 L 154.000 295.579 159.900 295.689 L 165.800 295.800 165.800 297.600 L 165.800 299.400 157.600 299.400 L 149.400 299.400 149.293 289.207 C 149.234 283.601,149.275 278.782,149.384 278.498 C 149.538 278.097,151.289 278.007,157.291 278.091 L 165.000 278.200 165.000 280.000 M189.019 279.209 C 190.468 279.901,191.657 280.750,191.798 281.195 C 192.290 282.743,189.419 285.326,188.629 284.046 C 186.848 281.165,180.346 281.871,178.100 285.189 C 174.201 290.949,182.128 298.185,187.862 294.099 C 189.496 292.935,190.158 292.966,191.171 294.254 C 192.700 296.198,192.296 296.695,187.105 299.257 C 183.020 301.274,175.547 298.057,173.397 293.357 C 168.984 283.707,179.150 274.499,189.019 279.209 M204.200 288.800 L 204.200 299.400 202.000 299.400 L 199.800 299.400 199.693 289.207 C 199.566 277.164,199.402 277.924,202.096 278.079 L 204.200 278.200 204.200 288.800 M226.281 278.480 C 229.212 279.739,230.677 281.585,230.819 284.200 C 231.168 290.591,228.486 293.200,221.568 293.200 L 218.034 293.200 217.917 296.300 L 217.800 299.400 215.600 299.400 L 213.400 299.400 213.293 289.207 C 213.234 283.601,213.273 278.786,213.380 278.507 C 213.645 277.818,224.685 277.795,226.281 278.480 M254.200 280.000 L 254.200 281.800 248.500 281.911 L 242.800 282.022 242.800 284.399 L 242.800 286.776 247.900 286.888 L 253.000 287.000 253.000 288.800 L 253.000 290.600 247.900 290.712 L 242.800 290.824 242.800 293.201 L 242.800 295.579 248.700 295.689 L 254.600 295.800 254.600 297.600 L 254.600 299.400 246.600 299.400 L 238.600 299.400 238.493 289.207 C 238.434 283.601,238.475 278.782,238.584 278.498 C 238.738 278.097,240.489 278.007,246.491 278.091 L 254.200 278.200 254.200 280.000 M274.516 278.540 C 275.350 278.830,276.511 279.425,277.096 279.862 L 278.159 280.656 277.449 282.152 C 276.551 284.046,276.020 284.237,274.140 283.345 C 271.347 282.019,267.241 282.458,267.206 284.084 C 267.190 284.816,269.023 285.885,271.793 286.760 C 281.647 289.872,280.136 299.600,269.799 299.600 C 268.144 299.600,266.477 299.441,266.095 299.247 C 265.713 299.052,264.860 298.656,264.200 298.365 C 261.205 297.046,260.524 295.450,262.109 293.469 C 263.005 292.350,263.024 292.346,264.010 293.069 C 267.591 295.697,273.200 295.935,273.200 293.459 C 273.200 292.297,272.696 291.859,270.600 291.195 C 267.921 290.348,267.469 290.172,265.510 289.219 C 262.371 287.692,261.178 284.571,262.624 281.671 C 263.194 280.529,263.938 279.874,266.202 278.524 C 267.284 277.878,272.644 277.888,274.516 278.540 M127.600 285.600 L 127.600 289.200 130.140 289.200 C 134.574 289.200,136.375 288.160,136.375 285.600 C 136.375 283.040,134.574 282.000,130.140 282.000 L 127.600 282.000 127.600 285.600 M218.000 285.600 L 218.000 289.200 220.500 289.170 C 224.025 289.127,225.700 288.444,226.153 286.866 C 227.080 283.633,225.275 282.089,220.500 282.030 L 218.000 282.000 218.000 285.600 " stroke="none" fill="#ffffff" fill-rule="evenodd"></path><path id="path2" d="M273.981 76.130 C 273.201 76.416,271.684 77.269,270.611 78.025 C 269.538 78.781,267.387 80.279,265.830 81.354 C 258.233 86.598,247.441 97.180,241.417 105.293 C 240.393 106.672,239.338 108.070,239.072 108.400 C 238.806 108.730,238.150 109.630,237.614 110.400 C 237.077 111.170,235.271 113.510,233.600 115.600 C 231.929 117.690,230.129 120.030,229.600 120.800 C 229.071 121.570,228.529 122.290,228.396 122.400 C 228.263 122.510,227.874 123.009,227.533 123.509 C 227.192 124.008,226.293 125.088,225.536 125.909 C 223.934 127.645,220.800 132.174,220.800 132.753 C 220.800 133.090,216.271 139.408,215.605 140.000 C 215.481 140.110,213.836 142.090,211.949 144.400 C 207.234 150.171,203.521 153.600,201.985 153.600 L 200.800 153.600 200.800 151.019 C 200.800 149.599,200.961 148.024,201.158 147.519 C 201.355 147.013,201.741 145.790,202.016 144.800 C 202.887 141.660,203.486 139.892,205.001 135.996 C 206.962 130.950,207.806 128.568,208.399 126.400 C 208.926 124.473,209.170 123.796,210.133 121.594 C 210.472 120.821,210.973 119.651,211.248 118.994 C 211.525 118.334,211.700 116.638,211.640 115.200 C 211.550 113.062,211.714 112.235,212.565 110.542 C 213.483 108.717,213.600 108.005,213.600 104.269 L 213.600 100.054 212.399 99.199 C 211.131 98.296,210.465 98.236,203.800 98.423 C 200.457 98.517,200.024 98.435,197.730 97.272 C 190.555 93.632,181.644 97.768,173.541 108.500 C 172.253 110.205,170.085 113.085,168.722 114.900 C 167.359 116.715,165.048 119.640,163.587 121.400 C 162.125 123.160,158.880 127.480,156.376 131.000 C 144.682 147.434,137.817 153.921,135.260 150.953 C 133.874 149.344,134.238 141.599,135.992 135.400 C 136.241 134.520,136.599 133.260,136.788 132.600 C 137.535 129.983,138.304 126.884,138.773 124.600 C 139.044 123.280,139.431 121.445,139.633 120.523 C 140.569 116.246,139.810 113.545,137.061 111.369 C 131.818 107.219,131.317 107.406,128.392 114.600 C 128.213 115.040,127.976 115.760,127.864 116.200 C 127.753 116.640,126.770 119.520,125.680 122.600 C 123.172 129.690,123.188 129.645,122.816 130.600 C 122.173 132.253,120.864 136.679,120.391 138.800 C 120.121 140.010,119.743 141.522,119.550 142.160 C 119.358 142.798,119.200 144.058,119.200 144.960 C 119.200 146.542,118.408 151.104,117.631 154.000 C 116.204 159.317,115.459 162.159,114.014 167.800 C 113.112 171.320,112.216 174.920,112.023 175.800 C 111.830 176.680,110.306 182.800,108.636 189.400 C 106.050 199.624,104.893 203.428,102.800 208.600 C 102.622 209.040,101.902 210.930,101.200 212.800 C 100.498 214.670,99.778 216.560,99.601 217.000 C 97.578 222.012,94.400 232.327,94.400 233.881 C 94.400 234.918,93.829 237.718,92.582 242.800 C 90.821 249.977,90.345 251.802,90.028 252.600 C 89.854 253.040,89.493 254.120,89.226 255.000 C 88.327 257.966,85.454 264.973,83.520 268.914 C 82.464 271.067,81.600 273.090,81.600 273.409 C 81.600 274.622,87.758 277.600,90.266 277.600 C 92.033 277.600,94.870 279.276,96.131 281.064 C 99.863 286.360,104.124 282.792,106.000 272.800 C 106.562 269.810,106.741 269.166,108.444 264.000 C 110.093 259.002,115.554 247.236,118.935 241.400 C 119.445 240.520,120.404 238.810,121.066 237.600 C 121.728 236.390,124.099 232.359,126.335 228.643 C 128.571 224.926,130.400 221.809,130.400 221.715 C 130.400 221.621,130.940 220.759,131.600 219.800 C 132.260 218.841,132.800 217.936,132.800 217.790 C 132.800 217.643,133.139 217.046,133.553 216.462 C 134.256 215.471,134.633 214.833,136.843 210.900 C 137.306 210.075,137.823 209.220,137.992 209.000 C 138.303 208.595,140.663 204.191,143.881 198.009 C 144.852 196.144,145.791 194.524,145.968 194.409 C 146.754 193.897,151.716 186.906,153.830 183.333 C 158.345 175.702,165.601 165.405,167.305 164.212 C 169.286 162.824,169.614 165.647,168.116 171.200 C 167.790 172.410,167.372 174.030,167.188 174.800 C 167.004 175.570,166.671 176.830,166.449 177.600 C 166.227 178.370,165.865 179.630,165.645 180.400 C 165.425 181.170,165.065 182.430,164.845 183.200 C 164.625 183.970,164.265 185.230,164.045 186.000 C 163.825 186.770,163.445 188.120,163.200 189.000 C 162.955 189.880,162.585 191.185,162.377 191.900 C 162.170 192.615,161.820 193.830,161.600 194.600 C 161.380 195.370,161.032 196.585,160.828 197.300 C 160.219 199.425,158.766 204.880,158.350 206.600 C 158.137 207.480,157.810 208.830,157.622 209.600 C 157.434 210.370,157.064 211.990,156.800 213.200 C 156.536 214.410,156.146 216.120,155.935 217.000 C 155.724 217.880,155.426 220.040,155.273 221.800 C 154.964 225.356,153.655 228.416,150.515 232.928 C 147.979 236.571,146.377 239.000,144.000 242.800 C 142.831 244.670,141.272 247.142,140.537 248.294 C 138.780 251.045,138.830 251.707,140.900 253.131 C 146.010 256.644,158.308 258.592,164.034 256.794 C 165.445 256.351,167.320 255.779,168.200 255.523 C 171.719 254.500,176.325 250.513,179.649 245.612 C 181.279 243.209,181.690 243.098,181.362 245.150 C 180.883 248.140,182.075 247.538,187.600 241.996 C 188.810 240.783,190.078 239.428,190.418 238.986 C 191.576 237.480,193.600 234.457,193.600 234.232 C 193.600 234.109,197.335 228.361,201.900 221.458 C 211.190 207.411,214.796 201.819,217.027 198.000 C 219.285 194.135,222.400 188.044,222.403 187.487 C 222.409 186.360,226.332 181.934,228.754 180.321 C 231.602 178.425,232.896 176.729,234.463 172.839 C 235.381 170.561,235.655 170.213,236.463 170.298 C 237.227 170.377,237.861 169.750,239.899 166.898 C 246.550 157.588,248.412 155.184,251.049 152.500 C 252.615 150.905,254.182 149.600,254.530 149.600 C 255.789 149.600,255.733 154.192,254.376 162.200 C 254.153 163.520,253.796 165.680,253.583 167.000 C 253.371 168.320,253.084 170.008,252.946 170.751 C 252.462 173.349,253.720 171.858,255.290 167.972 C 256.128 165.898,257.066 163.660,257.374 163.000 C 257.682 162.340,258.239 161.035,258.611 160.100 C 258.983 159.165,259.447 158.400,259.643 158.400 C 260.283 158.400,260.001 160.176,259.200 161.200 C 258.770 161.750,258.414 162.479,258.409 162.820 C 258.404 163.161,258.248 163.611,258.063 163.820 C 257.593 164.350,256.895 168.218,256.851 170.528 C 256.829 171.720,256.527 172.865,256.062 173.528 C 255.562 174.239,255.242 175.564,255.110 177.462 C 254.972 179.467,254.644 180.758,254.016 181.774 C 253.420 182.738,253.201 183.551,253.364 184.198 C 253.599 185.135,252.817 190.700,252.043 193.600 C 250.795 198.276,250.454 199.663,249.978 202.000 C 249.066 206.484,247.200 210.401,247.200 207.833 C 247.200 205.730,246.355 207.590,244.398 214.000 C 242.868 219.011,241.101 225.946,240.779 228.200 C 240.453 230.479,240.151 232.454,239.216 238.400 C 238.992 239.830,238.634 241.900,238.421 243.000 C 238.209 244.100,237.848 245.990,237.619 247.200 C 237.390 248.410,237.013 250.210,236.783 251.200 C 236.381 252.924,236.132 253.925,235.164 257.700 C 233.681 263.487,235.054 267.184,238.695 267.204 C 239.083 267.206,240.210 267.853,241.200 268.641 C 243.190 270.225,242.915 270.210,250.000 269.121 C 253.350 268.607,254.543 267.833,255.446 265.592 C 255.758 264.817,257.184 263.029,258.614 261.617 C 262.111 258.165,263.511 255.353,262.801 253.203 C 262.477 252.220,262.399 251.087,262.589 250.124 C 262.755 249.286,263.028 246.800,263.196 244.600 C 263.363 242.400,263.723 239.880,263.994 239.000 C 264.732 236.610,264.927 234.184,264.452 233.298 C 264.127 232.690,264.266 231.882,265.060 229.755 C 265.626 228.240,266.249 226.325,266.445 225.500 C 266.640 224.675,266.962 223.325,267.160 222.500 C 267.357 221.675,267.736 220.010,268.000 218.800 C 268.264 217.590,268.652 215.880,268.861 215.000 C 269.810 211.007,269.760 209.396,268.650 208.286 C 267.247 206.883,267.608 204.619,269.737 201.466 C 271.650 198.634,272.397 196.686,271.751 196.214 C 271.285 195.873,271.232 195.535,271.529 194.784 C 271.742 194.243,272.134 192.990,272.400 192.000 C 272.666 191.010,273.045 189.787,273.242 189.281 C 273.439 188.776,273.600 187.994,273.600 187.543 C 273.600 187.092,273.929 186.246,274.330 185.662 C 275.887 183.397,276.203 181.931,276.107 177.400 L 276.015 173.000 277.472 170.634 C 278.818 168.451,278.899 168.150,278.519 166.728 C 278.176 165.443,278.233 164.972,278.863 163.893 C 280.415 161.236,281.256 159.118,281.642 156.892 C 282.548 151.674,282.865 149.659,283.199 147.000 C 283.522 144.429,283.727 142.711,284.817 133.400 C 285.322 129.081,285.866 125.449,286.403 122.800 C 286.648 121.590,286.948 120.013,287.069 119.296 C 287.189 118.579,287.449 117.894,287.644 117.773 C 287.840 117.652,288.000 117.201,288.000 116.771 C 288.000 116.341,288.166 115.677,288.369 115.295 C 288.572 114.913,289.323 113.070,290.037 111.200 C 291.253 108.020,291.869 106.562,293.934 101.968 C 296.289 96.731,296.495 95.921,296.245 92.865 C 295.957 89.351,295.054 87.844,292.578 86.749 C 291.384 86.221,290.503 85.408,289.599 83.998 C 285.993 78.379,278.352 74.530,273.981 76.130 M235.621 122.061 C 235.162 123.017,234.466 124.340,234.075 125.000 C 233.684 125.660,232.771 127.234,232.045 128.498 C 231.320 129.762,229.959 131.652,229.022 132.698 C 228.084 133.744,227.066 135.299,226.759 136.153 C 225.976 138.333,222.400 141.138,222.400 139.572 C 222.400 139.337,222.907 138.392,223.526 137.472 C 224.145 136.552,225.135 134.958,225.726 133.928 C 226.317 132.899,227.035 131.819,227.322 131.528 C 227.609 131.238,228.629 129.830,229.588 128.400 C 231.995 124.812,236.004 119.942,236.328 120.215 C 236.398 120.274,236.080 121.105,235.621 122.061 M211.200 155.181 C 211.200 156.314,209.872 158.181,206.718 161.482 C 204.783 163.507,203.200 165.427,203.200 165.749 C 203.200 166.070,203.063 166.393,202.896 166.467 C 202.729 166.540,201.793 168.220,200.815 170.200 C 199.837 172.180,198.573 174.520,198.006 175.400 C 197.439 176.280,196.729 177.489,196.427 178.087 C 195.801 179.327,194.104 181.038,193.801 180.734 C 193.530 180.463,197.131 173.426,198.729 171.103 C 199.428 170.087,200.000 169.145,200.000 169.010 C 200.000 168.761,202.444 165.151,205.829 160.400 C 208.678 156.402,211.200 153.951,211.200 155.181 M152.372 240.653 C 151.738 241.836,151.200 241.872,151.200 240.731 C 151.200 239.513,152.540 238.013,152.739 239.008 C 152.816 239.392,152.651 240.131,152.372 240.653 M122.980 278.507 C 122.873 278.786,122.834 283.601,122.893 289.207 L 123.000 299.400 125.200 299.400 L 127.400 299.400 127.516 296.319 L 127.633 293.237 129.916 293.090 L 132.200 292.943 129.800 292.971 L 127.400 293.000 127.283 296.100 L 127.166 299.200 125.183 299.200 L 123.200 299.200 123.200 288.800 L 123.200 278.400 129.151 278.400 C 136.377 278.400,139.013 279.361,140.119 282.400 C 140.308 282.921,140.341 282.918,140.368 282.381 C 140.408 281.615,137.792 279.114,136.281 278.474 C 134.675 277.794,123.243 277.822,122.980 278.507 M149.380 278.507 C 149.273 278.786,149.234 283.601,149.293 289.207 L 149.400 299.400 157.600 299.400 L 165.800 299.400 165.800 297.600 L 165.800 295.800 159.900 295.689 L 154.000 295.579 154.000 293.201 L 154.000 290.824 159.100 290.712 L 164.200 290.600 164.200 288.800 L 164.200 287.000 159.100 286.888 L 154.000 286.776 154.000 284.388 L 154.000 282.000 159.376 282.000 C 162.333 282.000,164.837 281.865,164.939 281.700 C 165.042 281.535,162.577 281.490,159.463 281.600 L 153.800 281.800 153.800 284.400 L 153.800 287.000 158.900 287.112 L 164.000 287.224 164.000 288.800 L 164.000 290.376 158.900 290.488 L 153.800 290.600 153.800 293.200 L 153.800 295.800 159.700 295.911 L 165.600 296.021 165.600 297.611 L 165.600 299.200 157.600 299.200 L 149.600 299.200 149.600 288.784 L 149.600 278.367 157.362 278.484 C 161.632 278.548,165.041 278.465,164.939 278.300 C 164.593 277.742,149.597 277.941,149.380 278.507 M179.300 278.634 C 177.439 279.448,177.690 279.718,179.598 278.954 C 180.734 278.500,182.110 278.357,184.362 278.459 C 186.103 278.538,187.319 278.470,187.064 278.307 C 186.268 277.801,180.667 278.036,179.300 278.634 M199.788 278.486 C 199.677 278.776,199.634 283.601,199.693 289.207 L 199.800 299.400 202.000 299.400 L 204.200 299.400 204.200 288.800 L 204.200 278.200 202.096 278.079 C 200.631 277.995,199.929 278.118,199.788 278.486 M213.380 278.507 C 213.273 278.786,213.234 283.601,213.293 289.207 L 213.400 299.400 215.600 299.400 L 217.800 299.400 217.917 296.300 L 218.034 293.200 221.717 293.194 C 223.743 293.191,225.608 293.056,225.863 292.894 C 226.334 292.595,219.014 292.702,218.100 293.008 C 217.759 293.122,217.600 294.133,217.600 296.187 L 217.600 299.200 215.600 299.200 L 213.600 299.200 213.600 288.810 L 213.600 278.421 219.700 278.299 L 225.800 278.178 219.687 278.089 C 215.056 278.022,213.528 278.123,213.380 278.507 M238.584 278.498 C 238.475 278.782,238.434 283.601,238.493 289.207 L 238.600 299.400 246.600 299.400 L 254.600 299.400 254.600 297.600 L 254.600 295.800 248.800 295.782 L 243.000 295.765 248.700 295.893 L 254.400 296.022 254.400 297.611 L 254.400 299.200 246.600 299.200 L 238.800 299.200 238.800 288.800 L 238.800 278.400 246.400 278.400 L 254.000 278.400 254.000 279.988 L 254.000 281.577 248.700 281.707 L 243.400 281.838 248.800 281.819 L 254.200 281.800 254.200 280.000 L 254.200 278.200 246.491 278.091 C 240.489 278.007,238.738 278.097,238.584 278.498 M266.661 278.300 C 266.558 278.465,267.582 278.550,268.937 278.489 C 273.348 278.289,273.870 278.129,270.324 278.064 C 268.412 278.029,266.763 278.135,266.661 278.300 M204.000 288.800 L 204.000 299.200 202.000 299.200 L 200.000 299.200 200.000 288.800 L 200.000 278.400 202.000 278.400 L 204.000 278.400 204.000 288.800 M228.070 279.789 C 228.871 280.334,229.619 281.009,229.732 281.289 C 229.877 281.652,229.946 281.661,229.968 281.320 C 230.001 280.823,227.594 278.800,226.969 278.800 C 226.774 278.800,227.269 279.245,228.070 279.789 M190.332 280.215 C 191.284 280.996,191.605 281.538,191.455 282.112 C 191.309 282.670,191.372 282.788,191.662 282.498 C 192.327 281.833,191.711 280.634,190.301 279.847 L 189.000 279.122 190.332 280.215 M175.124 281.500 C 173.959 282.749,173.039 284.373,173.331 284.664 C 173.439 284.772,173.649 284.475,173.799 284.004 C 173.948 283.533,174.613 282.529,175.277 281.774 C 176.712 280.139,176.592 279.925,175.124 281.500 M127.370 282.133 C 127.258 282.427,127.218 284.182,127.283 286.033 L 127.400 289.400 129.800 289.429 L 132.200 289.457 129.900 289.309 L 127.600 289.162 127.600 285.601 L 127.600 282.040 129.900 281.896 L 132.200 281.751 129.887 281.676 C 128.273 281.623,127.513 281.761,127.370 282.133 M217.770 282.133 C 217.658 282.427,217.618 284.182,217.683 286.033 L 217.800 289.400 220.102 289.433 L 222.404 289.466 220.202 289.313 L 218.000 289.160 218.000 285.601 L 218.000 282.042 220.100 281.895 L 222.200 281.748 220.087 281.674 C 218.640 281.623,217.910 281.768,217.770 282.133 M180.530 282.645 C 179.831 282.989,178.931 283.660,178.530 284.135 C 177.805 284.994,177.806 284.995,178.635 284.297 C 179.094 283.910,180.174 283.242,181.035 282.813 C 181.896 282.383,182.420 282.029,182.200 282.025 C 181.980 282.021,181.228 282.300,180.530 282.645 M186.588 282.794 C 187.462 283.246,188.353 283.793,188.568 284.008 C 189.060 284.500,190.280 284.518,190.577 284.037 C 190.700 283.838,190.450 283.766,190.020 283.879 C 189.591 283.991,188.736 283.728,188.120 283.294 C 187.504 282.860,186.550 282.385,186.000 282.238 C 185.432 282.087,185.685 282.326,186.588 282.794 M262.267 282.267 C 261.900 282.633,261.929 285.909,262.300 286.138 C 262.465 286.240,262.600 285.351,262.600 284.162 C 262.600 282.973,262.585 282.000,262.567 282.000 C 262.548 282.000,262.413 282.120,262.267 282.267 M268.156 282.392 C 266.553 283.039,266.549 284.839,268.147 285.660 C 268.970 286.084,268.969 286.069,268.100 285.234 C 266.618 283.810,267.098 282.932,269.629 282.435 C 271.006 282.165,271.133 282.084,270.200 282.069 C 269.540 282.059,268.620 282.204,268.156 282.392 M276.564 283.085 C 276.216 283.637,275.954 283.662,274.787 283.255 C 274.034 282.993,273.594 282.950,273.809 283.161 C 274.597 283.932,276.241 284.073,276.787 283.416 C 277.077 283.067,277.237 282.704,277.143 282.610 C 277.049 282.515,276.788 282.730,276.564 283.085 M226.062 284.006 C 226.299 284.685,226.391 285.816,226.268 286.520 C 226.074 287.634,226.100 287.687,226.472 286.926 C 226.928 285.994,226.614 283.379,226.001 283.000 C 225.798 282.875,225.826 283.328,226.062 284.006 M140.668 284.600 C 140.971 286.577,141.202 286.914,141.194 285.367 C 141.191 284.725,141.016 283.930,140.805 283.600 C 140.545 283.191,140.501 283.510,140.668 284.600 M136.493 285.600 C 136.493 286.370,136.575 286.685,136.676 286.300 C 136.776 285.915,136.776 285.285,136.676 284.900 C 136.575 284.515,136.493 284.830,136.493 285.600 M172.568 285.740 C 172.454 286.037,172.417 287.522,172.485 289.040 L 172.610 291.800 172.805 288.499 C 173.000 285.203,172.958 284.722,172.568 285.740 M177.214 285.974 C 176.986 286.399,176.827 287.704,176.861 288.874 L 176.922 291.000 177.163 288.600 C 177.295 287.280,177.548 285.975,177.725 285.700 C 177.902 285.425,177.953 285.200,177.838 285.200 C 177.722 285.200,177.442 285.548,177.214 285.974 M140.086 288.261 C 139.839 289.065,139.796 289.560,139.990 289.361 C 140.382 288.961,140.989 286.800,140.710 286.800 C 140.614 286.800,140.332 287.458,140.086 288.261 M230.400 287.638 C 230.400 288.099,230.025 289.044,229.567 289.738 L 228.734 291.000 229.765 289.800 C 230.653 288.767,231.200 286.800,230.600 286.800 C 230.490 286.800,230.400 287.177,230.400 287.638 M248.199 287.093 L 252.800 287.225 252.800 288.800 L 252.800 290.375 248.100 290.508 L 243.400 290.642 248.200 290.621 L 253.000 290.600 253.000 288.800 L 253.000 287.000 248.299 286.980 L 243.599 286.960 248.199 287.093 M273.000 287.480 C 275.109 288.323,277.172 289.875,277.603 290.942 C 277.854 291.563,277.956 291.618,277.975 291.141 C 278.022 289.905,273.542 286.743,271.851 286.821 C 271.603 286.832,272.120 287.129,273.000 287.480 M263.200 287.807 C 263.200 288.110,266.791 290.070,267.099 289.935 C 267.270 289.861,266.462 289.316,265.305 288.724 C 264.147 288.132,263.200 287.719,263.200 287.807 M177.560 291.800 C 178.234 293.105,178.788 293.828,178.785 293.400 C 178.783 293.180,178.414 292.550,177.964 292.000 C 177.421 291.336,177.285 291.269,177.560 291.800 M136.933 292.231 C 136.795 292.590,137.007 293.151,137.423 293.531 C 138.111 294.159,138.124 294.158,137.633 293.505 C 137.346 293.123,137.215 292.538,137.343 292.205 C 137.470 291.872,137.485 291.600,137.375 291.600 C 137.265 291.600,137.066 291.884,136.933 292.231 M272.657 292.000 C 272.908 292.330,273.202 292.960,273.311 293.400 C 273.497 294.160,273.510 294.157,273.554 293.349 C 273.579 292.881,273.285 292.251,272.900 291.949 C 272.291 291.472,272.260 291.478,272.657 292.000 M262.342 293.108 C 261.866 293.716,261.876 293.741,262.427 293.311 C 262.930 292.919,263.240 292.953,263.994 293.481 C 264.510 293.842,264.803 293.928,264.644 293.671 C 264.019 292.660,262.906 292.388,262.342 293.108 M188.000 294.042 L 187.000 294.867 188.255 294.173 C 190.473 292.949,192.544 295.032,190.963 296.898 L 190.200 297.800 191.100 297.038 C 192.214 296.095,192.226 295.596,191.171 294.254 C 190.178 292.992,189.342 292.936,188.000 294.042 M133.149 294.200 C 133.365 294.640,133.834 295.360,134.193 295.800 L 134.844 296.600 134.451 295.800 C 134.235 295.360,133.766 294.640,133.407 294.200 L 132.756 293.400 133.149 294.200 M138.244 294.900 C 138.405 295.175,139.046 296.152,139.668 297.072 C 141.137 299.242,141.157 299.200,138.639 299.200 C 136.639 299.200,136.417 299.103,135.646 297.900 C 135.188 297.185,134.810 296.752,134.807 296.938 C 134.778 298.378,136.522 299.600,138.604 299.600 C 141.395 299.600,141.522 299.272,139.758 296.615 C 138.477 294.686,137.423 293.491,138.244 294.900 M174.000 294.658 C 174.000 294.874,174.585 295.579,175.300 296.225 L 176.600 297.400 175.400 296.002 C 174.740 295.233,174.155 294.528,174.100 294.435 C 174.045 294.343,174.000 294.443,174.000 294.658 M184.000 295.200 L 182.200 295.480 183.800 295.512 C 184.680 295.529,185.760 295.389,186.200 295.200 C 187.127 294.802,186.561 294.802,184.000 295.200 M267.600 295.187 C 268.591 295.517,271.487 295.735,271.167 295.454 C 271.075 295.374,270.010 295.206,268.800 295.081 C 267.380 294.934,266.954 294.971,267.600 295.187 M277.600 295.353 C 277.600 295.658,276.879 296.558,275.999 297.353 C 275.118 298.149,274.558 298.800,274.753 298.800 C 275.295 298.800,278.000 295.894,278.000 295.312 C 278.000 295.030,277.910 294.800,277.800 294.800 C 277.690 294.800,277.600 295.049,277.600 295.353 M262.088 297.013 C 262.686 297.643,263.247 298.077,263.335 297.979 C 263.423 297.880,262.933 297.365,262.247 296.834 L 261.000 295.869 262.088 297.013 M180.137 299.294 C 180.747 299.681,186.700 299.687,186.937 299.300 C 187.039 299.135,185.446 299.000,183.398 299.000 C 181.350 299.000,179.882 299.132,180.137 299.294 M266.263 299.300 C 266.500 299.687,272.853 299.681,273.463 299.294 C 273.718 299.132,272.160 299.000,270.002 299.000 C 267.844 299.000,266.161 299.135,266.263 299.300 " stroke="none" fill="#ffe8e5" fill-rule="evenodd"></path><path id="path3" d="M123.600 288.800 C 123.600 294.520,123.735 299.200,123.900 299.200 C 124.065 299.200,124.200 294.520,124.200 288.800 C 124.200 283.080,124.065 278.400,123.900 278.400 C 123.735 278.400,123.600 283.080,123.600 288.800 M132.033 278.545 C 132.125 278.625,133.001 278.792,133.979 278.918 C 135.130 279.065,135.554 279.016,135.179 278.779 C 134.645 278.440,131.658 278.219,132.033 278.545 M150.000 288.800 C 150.000 294.520,150.135 299.200,150.300 299.200 C 150.465 299.200,150.600 294.520,150.600 288.800 C 150.600 283.080,150.465 278.400,150.300 278.400 C 150.135 278.400,150.000 283.080,150.000 288.800 M180.940 278.706 C 180.687 278.868,181.986 279.000,183.826 279.000 C 185.667 279.000,186.864 278.878,186.486 278.728 C 185.553 278.358,181.510 278.342,180.940 278.706 M200.180 278.908 C 199.707 280.142,200.201 298.934,200.710 299.037 C 200.990 299.094,201.036 299.049,200.810 298.937 C 200.168 298.618,200.256 278.925,200.900 278.665 C 201.292 278.507,201.289 278.456,200.887 278.432 C 200.606 278.414,200.287 278.628,200.180 278.908 M203.000 288.800 C 203.000 294.520,203.135 299.200,203.300 299.200 C 203.465 299.200,203.600 294.520,203.600 288.800 C 203.600 283.080,203.465 278.400,203.300 278.400 C 203.135 278.400,203.000 283.080,203.000 288.800 M214.000 288.800 C 214.000 294.520,214.135 299.200,214.300 299.200 C 214.465 299.200,214.600 294.520,214.600 288.800 C 214.600 283.080,214.465 278.400,214.300 278.400 C 214.135 278.400,214.000 283.080,214.000 288.800 M222.033 278.544 C 222.125 278.623,223.100 278.791,224.200 278.918 C 225.487 279.067,225.915 279.026,225.400 278.803 C 224.636 278.472,221.686 278.245,222.033 278.544 M239.067 278.667 C 238.697 279.036,238.729 298.709,239.100 298.938 C 239.265 299.040,239.400 294.461,239.400 288.762 C 239.400 283.063,239.385 278.400,239.367 278.400 C 239.348 278.400,239.213 278.520,239.067 278.667 M253.523 279.788 L 253.685 281.176 248.342 281.307 L 243.000 281.438 248.400 281.419 L 253.800 281.400 253.931 280.251 C 254.003 279.619,253.905 278.945,253.712 278.752 C 253.510 278.550,253.430 278.993,253.523 279.788 M267.340 278.706 C 267.087 278.868,268.476 279.000,270.426 279.000 C 272.377 279.000,273.664 278.878,273.286 278.728 C 272.352 278.358,267.910 278.342,267.340 278.706 M137.685 280.409 C 138.492 281.074,139.269 281.988,139.413 282.439 C 139.556 282.891,139.761 283.172,139.869 283.064 C 140.405 282.528,137.599 279.202,136.609 279.200 C 136.394 279.200,136.878 279.744,137.685 280.409 M188.600 279.866 C 189.260 280.215,190.115 280.775,190.500 281.112 C 190.885 281.449,191.200 281.549,191.200 281.336 C 191.200 280.933,188.355 279.188,187.746 279.216 C 187.555 279.225,187.940 279.517,188.600 279.866 M227.306 279.935 C 227.915 280.336,228.674 281.010,228.994 281.432 C 229.313 281.854,229.580 281.984,229.587 281.720 C 229.601 281.214,227.179 279.198,226.562 279.203 C 226.363 279.204,226.698 279.534,227.306 279.935 M175.524 281.900 C 174.304 283.208,173.443 284.777,173.768 285.101 C 173.895 285.229,174.000 285.137,174.000 284.897 C 174.000 284.657,174.629 283.637,175.397 282.631 C 176.982 280.554,177.029 280.287,175.524 281.900 M128.707 281.490 C 129.426 281.579,130.506 281.577,131.107 281.486 C 131.708 281.395,131.120 281.322,129.800 281.324 C 128.480 281.326,127.988 281.401,128.707 281.490 M156.482 281.496 C 157.958 281.573,160.478 281.573,162.082 281.497 C 163.687 281.421,162.480 281.358,159.400 281.358 C 156.320 281.357,155.007 281.419,156.482 281.496 M219.107 281.490 C 219.826 281.579,220.906 281.577,221.507 281.486 C 222.108 281.395,221.520 281.322,220.200 281.324 C 218.880 281.326,218.388 281.401,219.107 281.490 M126.948 285.600 C 126.948 287.910,127.014 288.855,127.095 287.700 C 127.176 286.545,127.176 284.655,127.095 283.500 C 127.014 282.345,126.948 283.290,126.948 285.600 M134.600 282.068 C 135.040 282.312,135.679 282.712,136.020 282.956 C 136.360 283.200,136.215 282.995,135.697 282.500 C 135.179 282.005,134.540 281.605,134.278 281.612 C 134.015 281.619,134.160 281.824,134.600 282.068 M153.334 284.400 C 153.334 286.050,153.405 286.725,153.491 285.900 C 153.578 285.075,153.578 283.725,153.491 282.900 C 153.405 282.075,153.334 282.750,153.334 284.400 M179.800 282.337 C 179.140 282.740,178.330 283.407,178.000 283.818 C 177.632 284.277,177.945 284.155,178.812 283.503 C 179.589 282.918,180.669 282.262,181.212 282.045 C 181.755 281.828,181.930 281.640,181.600 281.627 C 181.270 281.614,180.460 281.933,179.800 282.337 M217.348 285.600 C 217.348 287.910,217.414 288.855,217.495 287.700 C 217.576 286.545,217.576 284.655,217.495 283.500 C 217.414 282.345,217.348 283.290,217.348 285.600 M267.289 282.223 C 266.800 282.565,266.400 283.050,266.400 283.299 C 266.400 283.549,266.625 283.471,266.900 283.126 C 267.175 282.781,267.760 282.303,268.200 282.062 C 268.640 281.821,268.815 281.619,268.589 281.612 C 268.363 281.605,267.778 281.880,267.289 282.223 M271.800 282.000 C 272.240 282.189,272.870 282.344,273.200 282.344 C 273.578 282.344,273.504 282.217,273.000 282.000 C 272.560 281.811,271.930 281.656,271.600 281.656 C 271.222 281.656,271.296 281.783,271.800 282.000 M190.449 282.699 C 190.107 283.310,189.891 283.336,188.729 282.907 L 187.400 282.416 188.400 283.198 C 188.950 283.629,189.565 283.930,189.766 283.869 C 190.195 283.737,191.406 282.000,191.069 282.000 C 190.943 282.000,190.664 282.314,190.449 282.699 M276.400 282.383 C 276.400 282.751,276.024 282.828,275.100 282.651 C 274.176 282.473,273.973 282.515,274.400 282.794 C 275.518 283.527,277.464 282.930,276.640 282.107 C 276.508 281.975,276.400 282.099,276.400 282.383 M262.558 283.425 C 262.416 283.989,262.473 284.837,262.684 285.309 C 262.995 286.007,263.067 285.816,263.067 284.284 C 263.067 282.158,262.933 281.932,262.558 283.425 M140.109 285.200 C 140.109 286.190,140.187 286.595,140.282 286.100 C 140.378 285.605,140.378 284.795,140.282 284.300 C 140.187 283.805,140.109 284.210,140.109 285.200 M136.909 285.600 C 136.909 286.590,136.987 286.995,137.082 286.500 C 137.178 286.005,137.178 285.195,137.082 284.700 C 136.987 284.205,136.909 284.610,136.909 285.600 M266.497 284.766 C 266.578 285.077,267.084 285.606,267.622 285.941 C 268.386 286.418,268.473 286.425,268.018 285.975 C 267.698 285.659,267.192 285.130,266.893 284.800 C 266.453 284.314,266.378 284.308,266.497 284.766 M173.043 286.233 C 172.704 287.115,172.750 290.902,173.106 291.462 C 173.268 291.716,173.400 290.502,173.400 288.763 C 173.400 285.321,173.398 285.307,173.043 286.233 M176.178 287.779 C 176.035 288.537,176.075 289.626,176.266 290.199 C 176.539 291.017,176.613 290.721,176.613 288.820 C 176.613 286.039,176.538 285.858,176.178 287.779 M226.694 287.164 C 226.579 287.602,225.881 288.328,225.143 288.778 C 223.683 289.669,223.783 289.864,225.337 289.156 C 226.323 288.707,227.517 286.983,227.118 286.585 C 226.999 286.466,226.808 286.726,226.694 287.164 M163.123 288.587 L 163.284 289.974 158.542 290.101 L 153.800 290.228 158.700 290.314 L 163.600 290.400 163.600 288.800 C 163.600 287.920,163.456 287.200,163.280 287.200 C 163.104 287.200,163.034 287.824,163.123 288.587 M251.900 287.465 C 252.175 287.576,252.400 288.186,252.400 288.821 L 252.400 289.975 247.700 290.108 L 243.000 290.242 247.800 290.221 L 252.600 290.200 252.724 288.700 C 252.826 287.464,252.721 287.206,252.124 287.232 C 251.704 287.250,251.610 287.348,251.900 287.465 M135.241 288.634 C 134.493 289.165,134.078 289.600,134.319 289.600 C 134.559 289.600,135.260 289.156,135.878 288.613 C 137.291 287.369,137.008 287.379,135.241 288.634 M264.800 288.196 C 264.800 288.470,267.249 289.684,267.432 289.501 C 267.519 289.414,266.962 289.044,266.195 288.678 C 265.428 288.312,264.800 288.095,264.800 288.196 M276.119 289.977 C 276.714 290.683,277.200 291.458,277.200 291.697 C 277.200 291.937,277.297 292.037,277.415 291.918 C 277.784 291.549,276.784 289.783,275.891 289.225 C 275.183 288.783,275.222 288.910,276.119 289.977 M227.906 290.611 C 226.390 292.021,226.320 292.558,227.817 291.291 C 228.658 290.580,229.814 289.192,229.549 289.211 C 229.467 289.217,228.728 289.847,227.906 290.611 M128.700 289.889 C 129.415 289.978,130.585 289.978,131.300 289.889 C 132.015 289.801,131.430 289.728,130.000 289.728 C 128.570 289.728,127.985 289.801,128.700 289.889 M219.107 289.890 C 219.826 289.979,220.906 289.977,221.507 289.886 C 222.108 289.795,221.520 289.722,220.200 289.724 C 218.880 289.726,218.388 289.801,219.107 289.890 M153.334 293.200 C 153.334 294.850,153.405 295.525,153.491 294.700 C 153.578 293.875,153.578 292.525,153.491 291.700 C 153.405 290.875,153.334 291.550,153.334 293.200 M271.945 291.223 C 272.685 291.674,273.377 291.957,273.482 291.851 C 273.684 291.650,271.473 290.399,270.920 290.401 C 270.744 290.402,271.205 290.772,271.945 291.223 M177.214 292.392 C 177.760 293.449,178.134 293.858,179.402 294.783 C 179.841 295.103,179.570 294.653,178.801 293.783 C 178.032 292.912,177.245 292.020,177.052 291.800 C 176.860 291.580,176.933 291.846,177.214 292.392 M223.600 292.400 C 222.233 292.688,222.228 292.695,223.400 292.719 C 224.060 292.733,224.960 292.589,225.400 292.400 C 226.362 291.987,225.564 291.987,223.600 292.400 M173.600 292.548 C 173.600 293.610,175.993 296.575,177.400 297.257 C 177.840 297.470,177.680 297.241,177.044 296.748 C 176.409 296.255,175.374 295.040,174.744 294.048 C 174.115 293.055,173.600 292.380,173.600 292.548 M273.654 293.067 C 273.625 293.544,273.496 294.264,273.370 294.667 C 273.152 295.361,273.164 295.362,273.596 294.688 C 273.847 294.297,273.975 293.577,273.881 293.088 C 273.709 292.201,273.709 292.201,273.654 293.067 M126.878 295.667 C 126.827 297.683,126.629 298.802,126.300 298.935 C 125.908 299.093,125.911 299.144,126.313 299.168 C 127.085 299.216,127.253 298.397,127.098 295.360 L 126.957 292.600 126.878 295.667 M133.437 293.800 C 133.797 294.350,134.157 294.800,134.237 294.800 C 134.317 294.800,134.178 294.350,133.927 293.800 C 133.677 293.250,133.316 292.800,133.127 292.800 C 132.937 292.800,133.076 293.250,133.437 293.800 M217.278 295.667 C 217.227 297.683,217.029 298.802,216.700 298.935 C 216.308 299.093,216.311 299.144,216.713 299.168 C 217.485 299.216,217.653 298.397,217.498 295.360 L 217.357 292.600 217.278 295.667 M188.400 294.456 L 187.400 295.295 188.534 294.616 C 189.608 293.973,189.713 293.976,190.534 294.669 L 191.400 295.400 190.638 294.500 C 189.712 293.407,189.653 293.405,188.400 294.456 M263.600 293.779 C 263.600 293.889,264.140 294.259,264.800 294.600 C 265.460 294.941,266.000 295.131,266.000 295.021 C 266.000 294.911,265.460 294.541,264.800 294.200 C 264.140 293.859,263.600 293.669,263.600 293.779 M261.737 295.020 C 261.496 295.649,262.998 297.600,263.724 297.600 C 263.935 297.600,263.619 297.215,263.022 296.745 C 262.312 296.188,262.003 295.632,262.130 295.145 C 262.366 294.245,262.071 294.151,261.737 295.020 M276.885 295.373 C 276.215 296.844,276.278 297.152,277.030 296.079 C 277.376 295.584,277.595 294.984,277.515 294.744 C 277.435 294.505,277.152 294.788,276.885 295.373 M267.000 295.600 C 267.440 295.789,268.070 295.944,268.400 295.944 C 268.778 295.944,268.704 295.817,268.200 295.600 C 267.760 295.411,267.130 295.256,266.800 295.256 C 266.422 295.256,266.496 295.383,267.000 295.600 M190.200 296.650 C 189.481 297.262,189.334 297.505,189.833 297.257 C 190.566 296.893,191.941 295.576,191.549 295.614 C 191.467 295.622,190.860 296.088,190.200 296.650 M242.661 296.100 C 242.763 296.265,245.357 296.400,248.424 296.400 L 254.000 296.400 254.000 297.567 C 254.000 298.208,253.816 298.825,253.590 298.937 C 253.365 299.049,253.410 299.094,253.690 299.037 C 253.984 298.977,254.200 298.354,254.200 297.567 L 254.200 296.200 248.337 296.000 C 245.113 295.890,242.558 295.935,242.661 296.100 M159.442 296.294 L 164.885 296.423 164.723 297.812 C 164.634 298.575,164.715 299.200,164.904 299.200 C 165.094 299.200,165.192 298.525,165.124 297.700 L 165.000 296.200 159.499 296.182 L 153.999 296.165 159.442 296.294 M135.787 297.575 C 136.121 298.221,136.576 298.861,136.798 298.999 C 137.020 299.136,136.823 298.607,136.361 297.824 C 135.348 296.107,134.935 295.928,135.787 297.575 M180.938 298.894 C 181.538 299.275,185.662 299.275,186.262 298.894 C 186.516 298.732,185.318 298.600,183.600 298.600 C 181.882 298.600,180.684 298.732,180.938 298.894 M266.938 298.894 C 267.511 299.258,271.953 299.242,272.885 298.872 C 273.262 298.722,271.974 298.600,270.023 298.600 C 268.072 298.600,266.684 298.732,266.938 298.894 " stroke="none" fill="#b4b4b4" fill-rule="evenodd"></path><path id="path4" d="M123.375 288.800 C 123.375 294.630,123.431 297.015,123.499 294.100 C 123.567 291.185,123.567 286.415,123.499 283.500 C 123.431 280.585,123.375 282.970,123.375 288.800 M149.775 288.800 C 149.775 294.630,149.831 297.015,149.899 294.100 C 149.967 291.185,149.967 286.415,149.899 283.500 C 149.831 280.585,149.775 282.970,149.775 288.800 M203.775 288.800 C 203.775 294.630,203.831 297.015,203.899 294.100 C 203.967 291.185,203.967 286.415,203.899 283.500 C 203.831 280.585,203.775 282.970,203.775 288.800 M213.775 288.800 C 213.775 294.630,213.831 297.015,213.899 294.100 C 213.967 291.185,213.967 286.415,213.899 283.500 C 213.831 280.585,213.775 282.970,213.775 288.800 M164.893 280.000 C 164.893 280.770,164.975 281.085,165.076 280.700 C 165.176 280.315,165.176 279.685,165.076 279.300 C 164.975 278.915,164.893 279.230,164.893 280.000 M176.960 280.333 C 176.102 280.957,175.130 281.812,174.800 282.233 C 174.470 282.655,174.834 282.460,175.609 281.800 C 176.385 281.140,177.465 280.294,178.009 279.921 C 178.554 279.548,178.892 279.233,178.760 279.221 C 178.628 279.209,177.818 279.710,176.960 280.333 M264.122 280.229 L 263.000 281.258 264.300 280.354 C 265.015 279.857,265.600 279.393,265.600 279.325 C 265.600 279.009,265.158 279.280,264.122 280.229 M276.347 279.926 C 277.070 280.497,277.229 280.902,277.021 281.637 C 276.811 282.377,276.845 282.461,277.168 282.000 C 277.883 280.978,277.647 280.149,276.500 279.653 L 275.400 279.178 276.347 279.926 M190.716 282.713 L 190.032 284.200 190.816 283.256 C 191.247 282.736,191.600 282.061,191.600 281.756 C 191.600 280.933,191.470 281.073,190.716 282.713 M132.033 281.743 C 132.125 281.821,132.830 282.001,133.600 282.142 C 134.585 282.323,134.822 282.282,134.400 282.006 C 133.858 281.650,131.637 281.403,132.033 281.743 M242.565 282.148 C 242.165 283.189,242.583 286.934,243.110 287.039 C 243.390 287.094,243.436 287.049,243.210 286.937 C 242.607 286.637,242.687 282.112,243.300 281.865 C 243.692 281.707,243.689 281.656,243.287 281.632 C 243.006 281.614,242.680 281.846,242.565 282.148 M268.540 281.906 C 268.286 282.068,269.073 282.210,270.288 282.222 C 271.620 282.235,272.199 282.127,271.748 281.950 C 270.759 281.562,269.115 281.539,268.540 281.906 M266.777 283.243 C 266.435 283.883,266.445 284.196,266.822 284.543 C 267.197 284.889,267.250 284.880,267.040 284.508 C 266.888 284.238,266.958 283.653,267.196 283.208 C 267.433 282.764,267.538 282.400,267.428 282.400 C 267.318 282.400,267.025 282.779,266.777 283.243 M178.323 283.900 C 177.618 284.721,177.090 285.600,177.301 285.600 C 177.383 285.600,177.849 285.060,178.337 284.400 C 179.301 283.096,179.292 282.772,178.323 283.900 M226.658 284.800 C 226.975 286.525,227.202 286.851,227.194 285.567 C 227.191 285.035,227.011 284.330,226.794 284.000 C 226.518 283.578,226.477 283.815,226.658 284.800 M140.459 285.000 C 140.420 285.660,140.296 286.650,140.183 287.200 L 139.977 288.200 140.408 287.214 C 140.644 286.672,140.768 285.682,140.683 285.014 L 140.528 283.800 140.459 285.000 M230.501 285.400 C 230.505 286.280,230.587 286.593,230.683 286.095 C 230.779 285.598,230.775 284.878,230.675 284.495 C 230.575 284.113,230.496 284.520,230.501 285.400 M163.709 288.800 C 163.709 289.790,163.787 290.195,163.882 289.700 C 163.978 289.205,163.978 288.395,163.882 287.900 C 163.787 287.405,163.709 287.810,163.709 288.800 M176.493 288.800 C 176.493 289.570,176.575 289.885,176.676 289.500 C 176.776 289.115,176.776 288.485,176.676 288.100 C 176.575 287.715,176.493 288.030,176.493 288.800 M133.200 289.200 C 132.376 289.464,132.341 289.526,133.000 289.554 C 133.440 289.573,134.070 289.413,134.400 289.200 C 135.101 288.747,134.614 288.747,133.200 289.200 M138.100 290.602 C 137.165 291.550,136.400 292.417,136.400 292.529 C 136.400 292.888,139.259 290.224,139.650 289.500 C 140.167 288.542,140.048 288.627,138.100 290.602 M242.667 290.667 C 242.299 291.034,242.329 295.509,242.700 295.739 C 242.865 295.842,242.938 294.839,242.862 293.510 C 242.764 291.799,242.881 290.995,243.262 290.753 C 243.558 290.566,243.605 290.409,243.367 290.406 C 243.128 290.403,242.813 290.520,242.667 290.667 M277.709 293.200 C 277.709 294.190,277.787 294.595,277.882 294.100 C 277.978 293.605,277.978 292.795,277.882 292.300 C 277.787 291.805,277.709 292.210,277.709 293.200 M262.504 293.308 C 262.295 293.579,261.998 294.070,261.844 294.400 C 261.689 294.730,261.861 294.599,262.224 294.109 C 262.750 293.401,263.041 293.301,263.643 293.623 C 264.059 293.846,264.400 293.938,264.400 293.828 C 264.400 293.270,262.860 292.847,262.504 293.308 M175.400 295.950 C 176.060 296.677,177.140 297.528,177.800 297.841 C 178.460 298.155,178.654 298.184,178.232 297.906 C 177.809 297.628,176.729 296.777,175.832 296.015 L 174.200 294.629 175.400 295.950 M181.800 295.597 C 182.564 295.928,185.514 296.155,185.167 295.856 C 185.075 295.777,184.100 295.609,183.000 295.482 C 181.713 295.333,181.285 295.374,181.800 295.597 M261.200 295.464 C 261.200 295.682,261.695 296.297,262.300 296.830 L 263.400 297.800 262.400 296.600 C 261.850 295.940,261.355 295.325,261.300 295.233 C 261.245 295.142,261.200 295.245,261.200 295.464 M270.000 295.600 C 268.616 295.891,268.614 295.895,269.800 295.941 C 270.460 295.967,271.270 295.813,271.600 295.600 C 272.266 295.170,272.045 295.170,270.000 295.600 M135.000 296.800 C 135.341 297.460,135.711 298.000,135.821 298.000 C 135.931 298.000,135.741 297.460,135.400 296.800 C 135.059 296.140,134.689 295.600,134.579 295.600 C 134.469 295.600,134.659 296.140,135.000 296.800 M165.131 297.600 C 165.215 298.480,165.355 299.200,165.442 299.200 C 165.529 299.200,165.600 298.480,165.600 297.600 C 165.600 296.720,165.460 296.000,165.289 296.000 C 165.119 296.000,165.048 296.720,165.131 297.600 M190.018 297.050 C 188.136 298.386,187.971 298.618,189.429 297.877 C 190.105 297.534,190.892 296.971,191.178 296.626 C 191.860 295.805,191.677 295.872,190.018 297.050 " stroke="none" fill="#f5f5f5" fill-rule="evenodd"></path></g></svg>